<svg xmlns="http://www.w3.org/2000/svg" xmlns:xlink="http://www.w3.org/1999/xlink" width="850" zoomAndPan="magnify" viewBox="0 0 637.5 149.999998" height="200" preserveAspectRatio="xMidYMid meet" version="1.0"><defs><clipPath id="6387db5d3d"><path d="M 166 9.589844 L 336 9.589844 L 336 105 L 166 105 Z M 166 9.589844 " clip-rule="nonzero"/></clipPath><clipPath id="077ace9247"><path d="M 76.066406 0.0585938 L 246 0.0585938 L 246 91 L 76.066406 91 Z M 76.066406 0.0585938 " clip-rule="nonzero"/></clipPath><clipPath id="9a84823c7f"><path d="M 274 9.589844 L 444 9.589844 L 444 105 L 274 105 Z M 274 9.589844 " clip-rule="nonzero"/></clipPath><clipPath id="d7a24678e8"><path d="M 430 15.160156 L 600 15.160156 L 600 110 L 430 110 Z M 430 15.160156 " clip-rule="nonzero"/></clipPath><clipPath id="ec0ede6561"><path d="M 148.070312 42 L 318 42 L 318 137 L 148.070312 137 Z M 148.070312 42 " clip-rule="nonzero"/></clipPath><clipPath id="c6ceeeb991"><path d="M 252 39.066406 L 422 39.066406 L 422 134 L 252 134 Z M 252 39.066406 " clip-rule="nonzero"/></clipPath><clipPath id="1bfe6d3b3c"><path d="M 381 52.386719 L 551 52.386719 L 551 147 L 381 147 Z M 381 52.386719 " clip-rule="nonzero"/></clipPath></defs><path fill="#948b9e" d="M 100.996094 94.753906 C 94.484375 87.390625 94.339844 71.980469 104.367188 66.398438 C 114.394531 60.820312 127.1875 63.863281 137.070312 69.695312 C 137.480469 55.148438 150.753906 42.171875 165.308594 42.09375 C 179.859375 42.019531 193.273438 54.855469 193.832031 69.398438 C 199.128906 64.558594 208.769531 63.808594 215.921875 67.769531 C 222.949219 71.65625 226.261719 77.8125 225.433594 84.792969 C 235.410156 81.753906 251.660156 88.695312 248.503906 104.3125 C 244.25 125.375 214.785156 122.773438 214.785156 122.773438 C 214.785156 122.773438 207.648438 134.445312 187.808594 136.257812 C 174.800781 137.449219 160.792969 132.867188 153.023438 125.257812 C 148.371094 130.550781 136.972656 133.5 120.722656 130.027344 C 113.238281 128.429688 104.789062 122.140625 107.628906 115.832031 C 84.910156 119.933594 79.152344 109.5 80.179688 104 C 82.386719 92.167969 100.996094 94.753906 100.996094 94.753906 Z M 100.996094 94.753906 " fill-opacity="1" fill-rule="nonzero"/><path fill="#948b9e" d="M 214.785156 122.769531 C 214.785156 122.769531 207.644531 134.445312 187.808594 136.257812 C 174.800781 137.449219 160.792969 132.867188 153.023438 125.253906 C 148.371094 130.550781 136.972656 133.5 120.722656 130.027344 C 113.238281 128.429688 104.789062 122.140625 107.628906 115.828125 C 89.566406 119.089844 82.222656 113.164062 80.488281 107.832031 C 86.804688 114.09375 105.59375 114.242188 114.886719 105.417969 C 114.886719 105.417969 116.796875 118.3125 133.660156 118.667969 C 148.488281 118.984375 156.53125 111.726562 156.53125 111.726562 C 156.53125 111.726562 188.519531 139.453125 214.785156 122.769531 Z M 214.785156 122.769531 " fill-opacity="1" fill-rule="nonzero"/><g clip-path="url(#6387db5d3d)"><path fill="#948b9e" d="M 187.257812 62.367188 C 180.746094 55.003906 180.601562 39.59375 190.628906 34.015625 C 200.65625 28.433594 213.449219 31.476562 223.332031 37.308594 C 223.742188 22.761719 237.015625 9.785156 251.570312 9.710938 C 266.125 9.632812 279.535156 22.46875 280.09375 37.011719 C 285.390625 32.171875 295.03125 31.425781 302.183594 35.382812 C 309.210938 39.273438 312.523438 45.425781 311.695312 52.40625 C 321.675781 49.371094 337.921875 56.3125 334.769531 71.929688 C 330.511719 92.992188 301.046875 90.386719 301.046875 90.386719 C 301.046875 90.386719 293.910156 102.0625 274.070312 103.875 C 261.066406 105.0625 247.054688 100.484375 239.285156 92.871094 C 234.632812 98.167969 223.234375 101.113281 206.984375 97.644531 C 199.5 96.042969 191.050781 89.753906 193.890625 83.445312 C 171.175781 87.546875 165.414062 77.113281 166.441406 71.613281 C 168.648438 59.78125 187.257812 62.367188 187.257812 62.367188 Z M 187.257812 62.367188 " fill-opacity="1" fill-rule="nonzero"/></g><path fill="#948b9e" d="M 301.046875 90.386719 C 301.046875 90.386719 293.910156 102.058594 274.070312 103.875 C 261.0625 105.0625 247.054688 100.480469 239.285156 92.871094 C 234.632812 98.164062 223.234375 101.113281 206.984375 97.644531 C 199.5 96.042969 191.050781 89.753906 193.890625 83.445312 C 175.828125 86.707031 168.484375 80.777344 166.753906 75.445312 C 173.066406 81.710938 191.859375 81.859375 201.148438 73.03125 C 201.148438 73.03125 203.058594 85.925781 219.921875 86.285156 C 234.75 86.601562 242.796875 79.34375 242.796875 79.34375 C 242.796875 79.34375 274.78125 107.070312 301.046875 90.386719 Z M 301.046875 90.386719 " fill-opacity="1" fill-rule="nonzero"/><g clip-path="url(#077ace9247)"><path fill="#ceb1ba" d="M 97.90625 49.042969 C 91.394531 41.675781 91.25 26.265625 101.277344 20.6875 C 111.304688 15.105469 124.101562 18.148438 133.980469 23.984375 C 134.390625 9.4375 147.664062 -3.539062 162.21875 -3.617188 C 176.773438 -3.695312 190.183594 9.140625 190.742188 23.683594 C 196.039062 18.847656 205.679688 18.097656 212.832031 22.054688 C 219.859375 25.945312 223.171875 32.097656 222.34375 39.078125 C 232.324219 36.042969 248.570312 42.984375 245.417969 58.601562 C 241.160156 79.664062 211.695312 77.058594 211.695312 77.058594 C 211.695312 77.058594 204.558594 88.734375 184.71875 90.546875 C 171.714844 91.738281 157.703125 87.15625 149.933594 79.542969 C 145.28125 84.839844 133.882812 87.785156 117.632812 84.316406 C 110.148438 82.71875 101.699219 76.429688 104.539062 70.117188 C 81.824219 74.21875 76.0625 63.789062 77.089844 58.285156 C 79.296875 46.453125 97.90625 49.042969 97.90625 49.042969 Z M 97.90625 49.042969 " fill-opacity="1" fill-rule="nonzero"/></g><path fill="#ceb1ba" d="M 211.695312 77.058594 C 211.695312 77.058594 204.558594 88.734375 184.71875 90.546875 C 171.714844 91.738281 157.703125 87.15625 149.933594 79.542969 C 145.28125 84.839844 133.882812 87.785156 117.632812 84.316406 C 110.148438 82.71875 101.699219 76.425781 104.539062 70.117188 C 86.476562 73.378906 79.132812 67.453125 77.402344 62.121094 C 83.714844 68.382812 102.507812 68.53125 111.796875 59.707031 C 111.796875 59.707031 113.707031 72.597656 130.570312 72.957031 C 145.398438 73.273438 153.445312 66.015625 153.445312 66.015625 C 153.445312 66.015625 185.429688 93.742188 211.695312 77.058594 Z M 211.695312 77.058594 " fill-opacity="1" fill-rule="nonzero"/><g clip-path="url(#9a84823c7f)"><path fill="#ceb1ba" d="M 295.789062 62.367188 C 289.277344 55.003906 289.132812 39.59375 299.160156 34.015625 C 309.1875 28.433594 321.980469 31.476562 331.863281 37.308594 C 332.273438 22.761719 345.546875 9.785156 360.101562 9.710938 C 374.652344 9.632812 388.066406 22.46875 388.625 37.011719 C 393.921875 32.171875 403.5625 31.425781 410.714844 35.382812 C 417.742188 39.273438 421.054688 45.425781 420.226562 52.40625 C 430.203125 49.371094 446.453125 56.3125 443.296875 71.929688 C 439.042969 92.992188 409.578125 90.386719 409.578125 90.386719 C 409.578125 90.386719 402.441406 102.0625 382.601562 103.875 C 369.59375 105.0625 355.585938 100.484375 347.816406 92.871094 C 343.164062 98.167969 331.765625 101.113281 315.515625 97.644531 C 308.03125 96.042969 299.582031 89.753906 302.421875 83.445312 C 279.703125 87.546875 273.945312 77.113281 274.972656 71.613281 C 277.179688 59.78125 295.789062 62.367188 295.789062 62.367188 Z M 295.789062 62.367188 " fill-opacity="1" fill-rule="nonzero"/></g><path fill="#ceb1ba" d="M 409.578125 90.386719 C 409.578125 90.386719 402.4375 102.058594 382.601562 103.875 C 369.59375 105.0625 355.585938 100.480469 347.816406 92.871094 C 343.164062 98.164062 331.765625 101.113281 315.515625 97.644531 C 308.03125 96.042969 299.582031 89.753906 302.421875 83.445312 C 284.359375 86.707031 277.015625 80.777344 275.28125 75.445312 C 281.597656 81.710938 300.386719 81.859375 309.679688 73.03125 C 309.679688 73.03125 311.589844 85.925781 328.453125 86.285156 C 343.28125 86.601562 351.328125 79.34375 351.328125 79.34375 C 351.328125 79.34375 383.3125 107.070312 409.578125 90.386719 Z M 409.578125 90.386719 " fill-opacity="1" fill-rule="nonzero"/><g clip-path="url(#d7a24678e8)"><path fill="#948b9e" d="M 451.121094 67.9375 C 444.609375 60.574219 444.464844 45.160156 454.492188 39.582031 C 464.519531 34 477.3125 37.046875 487.195312 42.878906 C 487.605469 28.332031 500.878906 15.355469 515.433594 15.277344 C 529.988281 15.199219 543.398438 28.039062 543.957031 42.578125 C 549.253906 37.742188 558.894531 36.992188 566.046875 40.953125 C 573.074219 44.839844 576.386719 50.992188 575.558594 57.972656 C 585.539062 54.9375 601.785156 61.878906 598.632812 77.496094 C 594.375 98.558594 564.910156 95.953125 564.910156 95.953125 C 564.910156 95.953125 557.773438 107.628906 537.933594 109.441406 C 524.929688 110.632812 510.917969 106.050781 503.148438 98.4375 C 498.496094 103.734375 487.097656 106.683594 470.847656 103.210938 C 463.363281 101.613281 454.914062 95.324219 457.753906 89.011719 C 435.039062 93.113281 429.277344 82.683594 430.304688 77.179688 C 432.511719 65.347656 451.121094 67.9375 451.121094 67.9375 Z M 451.121094 67.9375 " fill-opacity="1" fill-rule="nonzero"/></g><path fill="#948b9e" d="M 564.910156 95.953125 C 564.910156 95.953125 557.773438 107.628906 537.933594 109.441406 C 524.925781 110.632812 510.917969 106.050781 503.148438 98.4375 C 498.496094 103.734375 487.097656 106.679688 470.847656 103.210938 C 463.363281 101.613281 454.914062 95.324219 457.753906 89.011719 C 439.691406 92.273438 432.347656 86.347656 430.617188 81.015625 C 436.929688 87.277344 455.71875 87.425781 465.011719 78.601562 C 465.011719 78.601562 466.921875 91.492188 483.785156 91.851562 C 498.613281 92.167969 506.660156 84.910156 506.660156 84.910156 C 506.660156 84.910156 538.644531 112.636719 564.910156 95.953125 Z M 564.910156 95.953125 " fill-opacity="1" fill-rule="nonzero"/><g clip-path="url(#ec0ede6561)"><path fill="#e1d4cf" d="M 169.910156 94.753906 C 163.398438 87.390625 163.253906 71.980469 173.28125 66.398438 C 183.308594 60.820312 196.101562 63.863281 205.984375 69.695312 C 206.390625 55.148438 219.667969 42.171875 234.222656 42.09375 C 248.773438 42.019531 262.183594 54.855469 262.746094 69.398438 C 268.039062 64.558594 277.683594 63.808594 284.835938 67.769531 C 291.863281 71.65625 295.175781 77.8125 294.347656 84.792969 C 304.324219 81.753906 320.574219 88.695312 317.417969 104.3125 C 313.164062 125.375 283.699219 122.773438 283.699219 122.773438 C 283.699219 122.773438 276.558594 134.445312 256.722656 136.257812 C 243.714844 137.449219 229.707031 132.867188 221.9375 125.257812 C 217.28125 130.550781 205.886719 133.5 189.636719 130.027344 C 182.152344 128.429688 173.703125 122.140625 176.542969 115.832031 C 153.824219 119.933594 148.066406 109.5 149.09375 104 C 151.300781 92.167969 169.910156 94.753906 169.910156 94.753906 Z M 169.910156 94.753906 " fill-opacity="1" fill-rule="nonzero"/></g><path fill="#e1d4cf" d="M 283.699219 122.769531 C 283.699219 122.769531 276.558594 134.445312 256.722656 136.257812 C 243.714844 137.449219 229.707031 132.867188 221.9375 125.253906 C 217.28125 130.550781 205.882812 133.5 189.636719 130.027344 C 182.152344 128.429688 173.703125 122.140625 176.542969 115.828125 C 158.476562 119.089844 151.136719 113.164062 149.402344 107.832031 C 155.71875 114.09375 174.507812 114.242188 183.796875 105.417969 C 183.796875 105.417969 185.707031 118.3125 202.570312 118.667969 C 217.402344 118.984375 225.445312 111.726562 225.445312 111.726562 C 225.445312 111.726562 257.433594 139.453125 283.699219 122.769531 Z M 283.699219 122.769531 " fill-opacity="1" fill-rule="nonzero"/><g clip-path="url(#c6ceeeb991)"><path fill="#f2e3de" d="M 273.519531 91.84375 C 267.007812 84.480469 266.867188 69.070312 276.890625 63.488281 C 286.917969 57.910156 299.714844 60.953125 309.597656 66.785156 C 310.003906 52.238281 323.277344 39.261719 337.832031 39.183594 C 352.386719 39.109375 365.796875 51.945312 366.355469 66.488281 C 371.652344 61.648438 381.292969 60.898438 388.445312 64.859375 C 395.472656 68.75 398.785156 74.902344 397.957031 81.882812 C 407.9375 78.84375 424.183594 85.785156 421.03125 101.402344 C 416.773438 122.46875 387.308594 119.863281 387.308594 119.863281 C 387.308594 119.863281 380.171875 131.535156 360.332031 133.351562 C 347.328125 134.539062 333.316406 129.957031 325.546875 122.347656 C 320.894531 127.640625 309.496094 130.589844 293.246094 127.117188 C 285.761719 125.519531 277.3125 119.230469 280.152344 112.921875 C 257.4375 117.023438 251.675781 106.589844 252.703125 101.089844 C 254.910156 89.257812 273.519531 91.84375 273.519531 91.84375 Z M 273.519531 91.84375 " fill-opacity="1" fill-rule="nonzero"/></g><path fill="#ceb1ba" d="M 387.308594 119.859375 C 387.308594 119.859375 380.171875 131.535156 360.332031 133.347656 C 347.328125 134.539062 333.316406 129.957031 325.546875 122.347656 C 320.894531 127.640625 309.496094 130.589844 293.246094 127.117188 C 285.761719 125.519531 277.3125 119.230469 280.152344 112.917969 C 262.089844 116.179688 254.75 110.253906 253.015625 104.921875 C 259.328125 111.183594 278.121094 111.332031 287.410156 102.507812 C 287.410156 102.507812 289.320312 115.402344 306.183594 115.757812 C 321.011719 116.074219 329.058594 108.820312 329.058594 108.820312 C 329.058594 108.820312 361.042969 136.542969 387.308594 119.859375 Z M 387.308594 119.859375 " fill-opacity="1" fill-rule="nonzero"/><g clip-path="url(#1bfe6d3b3c)"><path fill="#e1d4cf" d="M 402.574219 105.164062 C 396.0625 97.800781 395.917969 82.390625 405.945312 76.808594 C 415.972656 71.226562 428.769531 74.273438 438.648438 80.105469 C 439.058594 65.558594 452.332031 52.582031 466.886719 52.503906 C 481.441406 52.429688 494.851562 65.265625 495.410156 79.808594 C 500.707031 74.96875 510.347656 74.21875 517.5 78.179688 C 524.527344 82.066406 527.839844 88.21875 527.011719 95.203125 C 536.992188 92.164062 553.238281 99.105469 550.085938 114.722656 C 545.828125 135.785156 516.363281 133.179688 516.363281 133.179688 C 516.363281 133.179688 509.226562 144.855469 489.386719 146.667969 C 476.382812 147.859375 462.371094 143.277344 454.601562 135.667969 C 449.949219 140.960938 438.550781 143.910156 422.300781 140.4375 C 414.816406 138.839844 406.367188 132.550781 409.207031 126.242188 C 386.492188 130.34375 380.730469 119.910156 381.757812 114.410156 C 383.964844 102.574219 402.574219 105.164062 402.574219 105.164062 Z M 402.574219 105.164062 " fill-opacity="1" fill-rule="nonzero"/></g><path fill="#e1d4cf" d="M 516.363281 133.179688 C 516.363281 133.179688 509.226562 144.855469 489.386719 146.667969 C 476.382812 147.859375 462.371094 143.277344 454.601562 135.664062 C 449.949219 140.960938 438.550781 143.910156 422.300781 140.4375 C 414.816406 138.839844 406.367188 132.550781 409.207031 126.238281 C 391.144531 129.5 383.800781 123.574219 382.070312 118.242188 C 388.382812 124.503906 407.175781 124.652344 416.464844 115.828125 C 416.464844 115.828125 418.375 128.71875 435.238281 129.078125 C 450.066406 129.394531 458.113281 122.136719 458.113281 122.136719 C 458.113281 122.136719 490.097656 149.863281 516.363281 133.179688 Z M 516.363281 133.179688 " fill-opacity="1" fill-rule="nonzero"/></svg>